<svg width="500" height="500" viewBox="0 0 500 500" fill="none" xmlns="http://www.w3.org/2000/svg">
<rect width="500" height="500" fill="white"/>
<path d="M434.426 106.939C443.568 106.939 448.139 110.147 448.139 116.564C448.139 124.756 441.794 136.429 429.104 151.583L425.215 156.088C414.026 169.741 399.835 179.093 382.642 184.144C376.638 185.919 371.725 186.807 367.904 186.807C362.992 186.807 359.171 186.67 356.442 186.397C353.713 186.124 349.756 185.783 344.571 185.373L327.173 183.94C312.436 182.984 297.699 182.096 282.962 181.277C255.808 207.9 232.747 236.912 213.78 268.313C206.821 279.917 203.341 287.085 203.341 289.815C203.341 302.922 207.707 312.206 216.441 317.667C225.31 323.128 237.182 325.858 252.055 325.858C267.065 325.858 279.823 325.107 290.33 323.606C300.974 321.967 310.935 319.988 320.214 317.667C329.629 315.209 338.294 312.547 346.208 309.68C354.259 306.676 361.286 303.878 367.29 301.284C373.431 298.69 378.48 296.369 382.437 294.321L390.419 290.225C394.649 289.133 398.607 289.611 402.291 291.659C408.841 295.618 412.116 300.123 412.116 305.175C412.116 310.226 409.182 315.277 403.314 320.329C355.965 361.15 302.134 385.93 241.821 394.667C222.172 397.534 203.546 398.968 185.943 398.968C168.34 398.968 154.559 398.012 144.598 396.101C134.773 394.326 126.517 391.869 119.831 388.728C113.281 385.588 108.096 381.97 104.275 377.875C100.455 373.642 97.5891 369.205 95.6787 364.563C92.8132 357.601 91.3804 349.477 91.3804 340.194C91.3804 330.773 92.6768 323.059 95.2694 317.052C97.9985 311.045 101.342 305.243 105.299 299.645C109.256 294.048 113.554 288.518 118.194 283.057C122.97 277.596 126.79 272.818 129.656 268.722C132.658 264.626 136.001 260.531 139.685 256.435C160.699 234.591 174.822 220.119 182.054 213.02L217.259 179.434C195.7 179.434 180.69 180.595 172.229 182.916C163.906 185.1 156.742 187.148 150.738 189.059C144.87 190.971 138.866 193.019 132.726 195.203C126.586 197.387 120.991 199.504 115.942 201.551C104.344 206.193 97.5209 209.402 95.4741 211.176C93.4273 212.815 90.9029 213.634 87.9009 213.634C84.8989 213.634 82.1016 213.156 79.5089 212.2C77.0528 211.108 74.8013 209.606 72.7545 207.695C68.2515 203.736 66 199.367 66 194.589C66 189.674 67.5692 184.895 70.7077 180.253C73.9826 175.611 78.9631 170.355 85.6494 164.485C92.3356 158.477 99.2265 152.675 106.322 147.078L125.767 131.718C131.771 126.94 135.796 123.049 137.843 120.045C143.847 111.308 158.243 105.437 181.031 102.434C187.581 101.478 194.267 101 201.089 101C208.049 101 217.464 101.546 229.335 102.638C241.343 103.731 255.671 104.891 272.318 106.12C316.802 109.669 349.483 111.444 370.361 111.444C391.375 111.444 403.383 111.171 406.384 110.625L415.595 109.192C424.465 107.69 430.742 106.939 434.426 106.939Z" fill="#392521"/>
</svg>
