<svg width="64" height="64" viewBox="0 0 64 64" fill="none" xmlns="http://www.w3.org/2000/svg">
<path d="M27.52 37.76L20.56 30.8C19.9733 30.2133 19.2533 29.92 18.4 29.92C17.5467 29.92 16.8 30.24 16.16 30.88C15.5733 31.4667 15.28 32.2133 15.28 33.12C15.28 34.0267 15.5733 34.7733 16.16 35.36L25.28 44.48C25.8667 45.0667 26.6133 45.36 27.52 45.36C28.4267 45.36 29.1733 45.0667 29.76 44.48L47.92 26.32C48.5067 25.7333 48.8 25.0133 48.8 24.16C48.8 23.3067 48.48 22.56 47.84 21.92C47.2533 21.3333 46.5067 21.04 45.6 21.04C44.6933 21.04 43.9467 21.3333 43.36 21.92L27.52 37.76ZM32 64C27.5733 64 23.4133 63.1595 19.52 61.4784C15.6267 59.7995 12.24 57.52 9.36 54.64C6.48 51.76 4.20053 48.3733 2.5216 44.48C0.840534 40.5867 0 36.4267 0 32C0 27.5733 0.840534 23.4133 2.5216 19.52C4.20053 15.6267 6.48 12.24 9.36 9.36C12.24 6.48 15.6267 4.19947 19.52 2.5184C23.4133 0.839467 27.5733 0 32 0C36.4267 0 40.5867 0.839467 44.48 2.5184C48.3733 4.19947 51.76 6.48 54.64 9.36C57.52 12.24 59.7995 15.6267 61.4784 19.52C63.1595 23.4133 64 27.5733 64 32C64 36.4267 63.1595 40.5867 61.4784 44.48C59.7995 48.3733 57.52 51.76 54.64 54.64C51.76 57.52 48.3733 59.7995 44.48 61.4784C40.5867 63.1595 36.4267 64 32 64Z" fill="#1C5700"/>
</svg>
