<svg width="64" height="58" viewBox="0 0 64 58" fill="none" xmlns="http://www.w3.org/2000/svg">
<path d="M32 6.63831C30.4 4.56384 28.3333 2.93745 25.8 1.75915C23.2667 0.586383 20.5333 0 17.6 0C12.8 0 8.66666 1.79788 5.2 5.39363C1.73333 8.98938 0 13.2766 0 18.2554C0 22.5426 1.06666 26.4841 3.2 30.0798C5.33333 33.6756 10.2667 39.3458 18 47.0905L26.6 55.3884C28.0667 56.9097 29.8667 57.6703 32 57.6703C34.1333 57.6703 35.9333 56.9097 37.4 55.3884L45.8 47.298C53.4 39.6916 58.3333 33.9854 60.6 30.1794C62.8667 26.379 64 22.4043 64 18.2554C64 13.2766 62.2667 8.98938 58.8 5.39363C55.3333 1.79788 51.2 0 46.4 0C43.6 0 40.9013 0.586383 38.304 1.75915C35.7013 2.93745 33.6 4.56384 32 6.63831Z" fill="#1C5700"/>
</svg>
