<svg width="207" height="59" viewBox="0 0 207 59" fill="none" xmlns="http://www.w3.org/2000/svg">
<path d="M2.14104 11.8065V1.37146H11.0555V3.13051H4.04916V10.0474H11.1152V11.8065H2.14104ZM3.18454 7.33433V5.6051H10.2953V7.33433H3.18454Z" fill="#2F1C00"/>
<path d="M16.5204 11.8065V0.775173H18.3689V11.8065H16.5204Z" fill="#2F1C00"/>
<path d="M24.7341 11.8065V3.9504H26.5677V11.8065H24.7341ZM25.6286 2.13173C25.2609 2.13173 24.9727 2.04228 24.764 1.8634C24.5652 1.67457 24.4658 1.41121 24.4658 1.07332C24.4658 0.755297 24.5702 0.496906 24.7789 0.298144C24.9876 0.0993813 25.2708 0 25.6286 0C26.0062 0 26.2944 0.094412 26.4932 0.283236C26.7019 0.462122 26.8062 0.725482 26.8062 1.07332C26.8062 1.3814 26.7019 1.63482 26.4932 1.83358C26.2845 2.03234 25.9963 2.13173 25.6286 2.13173Z" fill="#2F1C00"/>
<path d="M36.1775 11.9555C35.2334 11.9555 34.4135 11.7816 33.7178 11.4338C33.0221 11.086 32.4855 10.604 32.1078 9.9878C31.7302 9.37164 31.5414 8.66603 31.5414 7.87099C31.5414 7.07594 31.7401 6.37033 32.1376 5.75417C32.5352 5.138 33.0867 4.65601 33.7923 4.30817C34.5079 3.96034 35.3278 3.78642 36.252 3.78642C36.8185 3.78642 37.3452 3.85102 37.8322 3.98021C38.3191 4.10941 38.7415 4.28333 39.0993 4.50197C39.467 4.71067 39.7552 4.93427 39.9639 5.17279C40.1726 5.4113 40.2819 5.64485 40.2919 5.87342L39.785 5.91815V3.9504H41.6186V11.8065H39.7701V9.63003L40.1428 9.7791C40.1329 10.0077 40.0186 10.2512 39.7999 10.5096C39.5813 10.758 39.2881 10.9916 38.9204 11.2102C38.5626 11.4288 38.1452 11.6077 37.6682 11.7468C37.2011 11.886 36.7042 11.9555 36.1775 11.9555ZM36.6247 10.3307C37.2607 10.3307 37.8222 10.2263 38.3092 10.0176C38.7962 9.79898 39.1738 9.50581 39.4422 9.13809C39.7105 8.76045 39.8446 8.33808 39.8446 7.87099C39.8446 7.40389 39.7105 6.98649 39.4422 6.61878C39.1738 6.25107 38.7962 5.96287 38.3092 5.75417C37.8222 5.53553 37.2607 5.42621 36.6247 5.42621C35.9887 5.42621 35.4272 5.53553 34.9402 5.75417C34.4532 5.96287 34.0756 6.25107 33.8072 6.61878C33.5389 6.98649 33.4048 7.40389 33.4048 7.87099C33.4048 8.33808 33.5389 8.76045 33.8072 9.13809C34.0756 9.50581 34.4532 9.79898 34.9402 10.0176C35.4272 10.2263 35.9887 10.3307 36.6247 10.3307Z" fill="#2F1C00"/>
<path d="M50.9529 11.9555C49.9989 11.9555 49.1243 11.8413 48.3293 11.6127C47.5442 11.3742 46.8932 10.9866 46.3764 10.4499L47.569 9.3468C47.9566 9.70457 48.4287 9.9878 48.9852 10.1965C49.5517 10.4052 50.1827 10.5096 50.8784 10.5096C51.1169 10.5096 51.3654 10.4996 51.6238 10.4797C51.8821 10.4499 52.1256 10.4052 52.3542 10.3456C52.5927 10.276 52.7815 10.1866 52.9207 10.0772C53.0598 9.95799 53.1294 9.80892 53.1294 9.63003C53.1294 9.34183 52.8859 9.13313 52.3989 9.00393C52.1207 8.92443 51.8126 8.85486 51.4747 8.79523C51.1467 8.7356 50.8088 8.68591 50.461 8.64616C49.825 8.53684 49.2485 8.42255 48.7318 8.30329C48.2249 8.18404 47.7976 8.01012 47.4497 7.78154C47.1814 7.60266 46.9678 7.37905 46.8087 7.11072C46.6597 6.83245 46.5851 6.5045 46.5851 6.12685C46.5851 5.75914 46.6895 5.43118 46.8982 5.14297C47.1168 4.85477 47.41 4.61128 47.7777 4.41252C48.1554 4.20382 48.5926 4.04978 49.0895 3.9504C49.5864 3.84108 50.1181 3.78642 50.6846 3.78642C51.1716 3.78642 51.6735 3.83114 52.1902 3.92059C52.717 4.00009 53.2188 4.12929 53.6959 4.30817C54.1828 4.48706 54.5952 4.72557 54.9331 5.02372L53.994 6.2312C53.7157 6.04237 53.3878 5.87343 53.0101 5.72435C52.6325 5.56534 52.2349 5.44112 51.8175 5.35167C51.4001 5.25229 50.9877 5.2026 50.5803 5.2026C50.3517 5.2026 50.1082 5.21751 49.8498 5.24732C49.6013 5.2672 49.3628 5.30695 49.1343 5.36658C48.9156 5.42621 48.7367 5.51068 48.5976 5.62C48.4585 5.72932 48.3889 5.86846 48.3889 6.0374C48.3889 6.13678 48.4237 6.2312 48.4932 6.32064C48.5628 6.40014 48.6523 6.47468 48.7616 6.54425C48.9902 6.68338 49.2982 6.7927 49.6858 6.8722C50.0833 6.95171 50.5157 7.03122 50.9827 7.11072C51.6287 7.20016 52.22 7.31445 52.7567 7.45358C53.3033 7.59272 53.7555 7.7716 54.1133 7.99024C54.3915 8.15919 54.6052 8.35795 54.7543 8.58653C54.9033 8.80517 54.9779 9.06853 54.9779 9.37661C54.9779 9.93314 54.799 10.4002 54.4412 10.7779C54.0934 11.1555 53.6164 11.4487 53.0101 11.6574C52.4039 11.8562 51.7182 11.9555 50.9529 11.9555Z" fill="#2F1C00"/>
<path d="M41.9264 24.7105C42.9668 24.7105 43.487 25.0754 43.487 25.8052C43.487 26.7369 42.7649 28.0646 41.3208 29.7882L40.8783 30.3007C39.6049 31.8535 37.99 32.9172 36.0334 33.4917C35.3502 33.6936 34.7912 33.7946 34.3564 33.7946C33.7973 33.7946 33.3626 33.779 33.052 33.748C32.7414 33.7169 32.2911 33.6781 31.701 33.6315L29.7212 33.4685C28.0441 33.3598 26.3671 33.2588 24.69 33.1657C21.5999 36.1937 18.9756 39.4934 16.8171 43.0649C16.0252 44.3848 15.6292 45.2001 15.6292 45.5107C15.6292 47.0014 16.1261 48.0573 17.12 48.6784C18.1293 49.2996 19.4803 49.6101 21.1728 49.6101C22.881 49.6101 24.3328 49.5247 25.5285 49.3539C26.7397 49.1676 27.8733 48.9424 28.9292 48.6784C30.0007 48.3989 30.9867 48.0961 31.8874 47.77C32.8035 47.4284 33.6032 47.1101 34.2865 46.815C34.9853 46.52 35.5598 46.256 36.0101 46.0231L36.9185 45.5572C37.3999 45.433 37.8502 45.4874 38.2695 45.7203C39.0149 46.1706 39.3875 46.683 39.3875 47.2576C39.3875 47.8321 39.0537 48.4067 38.386 48.9812C32.9976 53.6242 26.8717 56.4426 20.0082 57.4364C17.7721 57.7625 15.6525 57.9255 13.6494 57.9255C11.6462 57.9255 10.0779 57.8168 8.9443 57.5994C7.82626 57.3976 6.8868 57.1181 6.12591 56.7609C5.38056 56.4038 4.79048 55.9923 4.35569 55.5264C3.9209 55.045 3.5948 54.5404 3.37741 54.0124C3.05131 53.2205 2.88826 52.2965 2.88826 51.2406C2.88826 50.1691 3.03578 49.2918 3.33082 48.6086C3.64139 47.9253 4.02183 47.2654 4.47215 46.6287C4.92247 45.992 5.41161 45.3631 5.93957 44.742C6.48307 44.1209 6.91786 43.5774 7.24395 43.1115C7.58557 42.6457 7.96602 42.1798 8.38528 41.714C10.7766 39.2295 12.3838 37.5835 13.2068 36.776L17.2131 32.956C14.7596 32.956 13.0515 33.088 12.0888 33.352C11.1416 33.6004 10.3263 33.8334 9.64307 34.0508C8.97536 34.2682 8.29211 34.5011 7.59334 34.7495C6.89457 34.998 6.25791 35.2387 5.68336 35.4716C4.36345 35.9996 3.58704 36.3645 3.35411 36.5664C3.12119 36.7527 2.83391 36.8459 2.49229 36.8459C2.15067 36.8459 1.83234 36.7915 1.5373 36.6828C1.25779 36.5586 1.00158 36.3878 0.768651 36.1704C0.256217 35.7201 0 35.2232 0 34.6797C0 34.1206 0.178575 33.5772 0.535726 33.0492C0.908406 32.5212 1.47519 31.9234 2.23608 31.2557C2.99696 30.5724 3.78114 29.9125 4.58861 29.2758L6.8014 27.5289C7.48464 26.9854 7.94273 26.5428 8.17565 26.2012C8.8589 25.2074 10.4971 24.5397 13.0904 24.1981C13.8357 24.0894 14.5966 24.035 15.373 24.035C16.165 24.035 17.2364 24.0971 18.5874 24.2214C19.9539 24.3456 21.5843 24.4776 23.4788 24.6173C28.541 25.0211 32.26 25.2229 34.6359 25.2229C37.0272 25.2229 38.3937 25.1919 38.7353 25.1298L39.7835 24.9667C40.7928 24.7959 41.5071 24.7105 41.9264 24.7105Z" fill="#2F1C00"/>
<path d="M52.6642 41.8304C52.6642 42.3895 52.8739 42.669 53.2931 42.669C53.8056 42.669 54.4655 42.3274 55.273 41.6441L57.2994 39.8972C59.4423 38.0493 61.4843 37.1254 63.4253 37.1254C64.6831 37.1254 65.8012 38.1735 66.7795 40.2699C67.6335 42.0711 68.4022 44.7575 69.0854 48.329C69.2096 48.9191 69.3106 49.2142 69.3882 49.2142C69.4814 49.2142 69.7065 49.0744 70.0637 48.7949C70.4364 48.5154 70.8867 48.1582 71.4146 47.7234C75.2191 44.478 77.4163 42.669 78.0064 42.2963C78.612 41.9081 79.0313 41.6519 79.2642 41.5276C79.4971 41.3879 79.7378 41.2637 79.9863 41.155C80.6074 40.922 81.0965 40.8056 81.4537 40.8056C82.1369 40.8056 82.4786 41.1627 82.4786 41.877C82.4786 42.964 81.7643 44.5479 80.3357 46.6287C78.7362 48.9579 76.6166 51.2794 73.9768 53.5931C70.9022 56.3106 68.2158 57.6693 65.9176 57.6693C63.4952 57.6693 61.8647 56.0388 61.0262 52.7779C60.8088 51.9394 60.638 51.1552 60.5138 50.4254L60.1644 48.6086C60.0712 48.1272 59.947 47.8865 59.7917 47.8865C59.652 47.8865 59.3492 48.1194 58.8833 48.5853L57.1597 50.3322C55.2342 52.2888 53.6192 53.7174 52.3148 54.618C49.6906 56.4503 47.3924 57.3665 45.4203 57.3665C43.06 57.3665 41.6702 56.1708 41.2509 53.7795C41.1267 53.0652 41.0646 52.1645 41.0646 51.0776C41.0646 49.975 41.2199 48.6318 41.5304 47.048C41.841 45.4641 42.268 43.8802 42.8115 42.2963C43.9917 38.9111 45.4591 36.0229 47.2138 33.6315L49.2868 30.883C54.3025 24.3301 58.4951 21.0536 61.8647 21.0536C62.6256 21.0536 63.1769 21.4263 63.5185 22.1716C63.6272 22.4045 63.6816 22.7539 63.6816 23.2198C63.6816 23.6856 63.4797 24.2912 63.076 25.0366C62.6722 25.7664 62.1753 26.5273 61.5852 27.3192C60.9952 28.1112 60.3585 28.9187 59.6753 29.7417C59.0075 30.5491 58.3942 31.3488 57.8352 32.1408L56.0882 34.6797C53.8056 38.1114 52.6642 40.495 52.6642 41.8304Z" fill="#2F1C00"/>
<path d="M103.372 42.5525C103.372 43.391 104.086 43.8103 105.515 43.8103C106.571 43.8103 107.953 43.2979 109.661 42.273L111.524 41.2481C112.099 40.922 112.596 40.759 113.015 40.759C113.45 40.759 113.791 40.891 114.04 41.155C114.288 41.4189 114.413 41.7839 114.413 42.2497C114.413 42.7156 114.257 43.259 113.947 43.8802C113.636 44.4858 113.209 45.1302 112.666 45.8135C112.122 46.4812 111.485 47.1489 110.756 47.8166C110.026 48.4688 109.242 49.0589 108.403 49.5868C106.54 50.7515 104.808 51.3338 103.209 51.3338C101.516 51.3338 100.165 51.0465 99.156 50.4719C98.8454 50.2856 98.5426 50.0915 98.2476 49.8896C96.586 51.7841 94.1791 53.5233 91.0269 55.1071C87.6728 56.7842 84.7457 57.6227 82.2456 57.6227C79.6214 57.6227 77.5483 56.5901 76.0266 54.5248C74.7998 52.8478 74.1865 51.1474 74.1865 49.4238C74.1865 46.9393 75.5141 44.5712 78.1695 42.3196C80.126 40.6736 82.0127 39.4236 83.8295 38.5695C85.6619 37.7154 87.3156 37.0555 88.7908 36.5896C91.912 35.6114 94.7226 35.1222 97.2227 35.1222C98.3407 35.1222 99.3345 35.3396 100.204 35.7744C101.089 36.1937 101.741 36.6207 102.161 37.0555C103.154 38.0338 103.651 39.2838 103.651 40.8056C103.651 41.2559 103.605 41.6053 103.512 41.8537C103.418 42.1022 103.372 42.3351 103.372 42.5525ZM84.3187 46.9548L84.2954 47.0247V47.048C84.2954 47.7157 84.4429 48.1505 84.7379 48.3523C85.4522 48.7871 86.2054 48.9036 86.9973 48.7017C87.7892 48.4843 88.5424 48.2203 89.2567 47.9098C91.0269 47.1489 92.6263 46.1861 94.0549 45.0215C93.8065 44.5246 93.6822 44.0122 93.6822 43.4842C93.6822 42.3662 94.1714 41.2481 95.1497 40.1301C93.9074 40.1301 92.2303 40.7124 90.1185 41.877C87.7892 43.1659 86.0423 44.4935 84.8777 45.86C84.505 46.3259 84.3187 46.6908 84.3187 46.9548Z" fill="#2F1C00"/>
<path d="M154.569 44.1364C154.569 46.4191 155.283 47.5604 156.712 47.5604C157.705 47.5604 159.421 46.6908 161.859 44.9516C164.064 43.3212 165.376 42.2963 165.796 41.877C166.758 41.0696 167.768 40.6658 168.824 40.6658C169.274 40.6658 169.654 40.8211 169.965 41.1317C170.291 41.4267 170.454 41.877 170.454 42.4826C170.454 43.0882 170.307 43.6395 170.012 44.1364C169.717 44.6333 169.336 45.1457 168.87 45.6737C168.42 46.2017 167.853 46.7917 167.17 47.4439C166.502 48.0961 165.734 48.7871 164.864 49.517C163.994 50.2313 163.039 50.9456 161.999 51.6599C160.974 52.3742 159.91 53.0186 158.808 53.5931C156.323 54.8665 154.08 55.5031 152.076 55.5031C149.778 55.5031 148.218 54.4627 147.395 52.3819C146.913 51.1862 146.673 49.7499 146.673 48.0728L139.894 52.6614C135.251 55.9224 132.487 57.6538 131.602 57.8557C131.152 57.9644 130.694 58.0187 130.228 58.0187C129.778 58.0187 129.351 57.9721 128.947 57.8789C128.543 57.8013 128.186 57.6615 127.876 57.4597C127.161 57.0404 126.804 56.4193 126.804 55.5963C126.804 55.2702 127.021 54.4782 127.456 53.2205L129.459 47.7234C130.081 45.9532 130.391 44.8895 130.391 44.5324C130.391 44.4081 130.313 44.346 130.158 44.346C130.003 44.346 129.716 44.5091 129.296 44.8352C128.877 45.1613 128.372 45.5805 127.782 46.093L122.239 50.9378L119.327 53.3602C116.346 55.736 113.916 56.924 112.037 56.924C111.152 56.924 110.259 56.528 109.358 55.736C108.38 54.8975 107.891 53.8882 107.891 52.708C107.891 51.5279 108.007 50.239 108.24 48.8415C108.457 47.4439 108.776 46.1007 109.195 44.8119C109.614 43.5075 110.134 42.2885 110.756 41.155C111.377 40.0059 112.083 39.0121 112.875 38.1735C114.583 36.3412 116.594 35.425 118.908 35.425C121.237 35.425 122.402 36.1083 122.402 37.4748C122.402 38.0648 122.083 38.9655 121.447 40.1767C120.096 42.8475 119.42 44.2917 119.42 44.5091C119.42 44.7109 119.483 44.874 119.607 44.9982C119.746 45.1069 119.894 45.1613 120.049 45.1613C120.375 45.1613 120.841 44.8973 121.447 44.3693C125.438 40.8755 127.945 38.7093 128.97 37.8707C130.011 37.0322 131.012 36.2946 131.975 35.6579C134.18 34.2138 135.935 33.4917 137.239 33.4917C138.311 33.4917 139.18 33.6626 139.848 34.0042C141.012 34.6098 141.595 35.293 141.595 36.0539C141.595 36.8148 141.486 37.6766 141.269 38.6394C141.067 39.6021 140.842 40.5338 140.593 41.4345L139.894 43.8103C139.677 44.4935 139.568 45.0215 139.568 45.3942C139.568 45.7513 139.724 45.9299 140.034 45.9299C140.78 45.9299 142.263 44.874 144.483 42.7621L146.742 40.6425C149.336 38.3133 151.3 37.1487 152.635 37.1487C153.272 37.1487 153.839 37.3971 154.336 37.894C155.205 38.7636 155.64 39.5245 155.64 40.1767C155.64 40.5338 155.516 41.0152 155.267 41.6208C154.802 42.7544 154.569 43.5929 154.569 44.1364Z" fill="#2F1C00"/>
<path d="M206.255 39.408C206.752 39.408 207 39.8273 207 40.6658C207 42.11 205.991 43.9811 203.972 46.2793L202.644 47.6303C198.622 51.6521 194.834 54.3307 191.278 55.6662C189.073 56.4892 187.489 56.4503 186.526 55.5497C185.734 54.7888 185.105 53.5621 184.639 51.8695L184.08 49.8431L179.119 52.8944L176.254 54.5248C172.838 56.3882 170.276 57.3199 168.567 57.3199C166.378 57.3199 164.553 56.4736 163.094 54.7811C161.696 53.1816 160.997 51.326 160.997 49.2142C160.997 47.1334 161.828 45.2777 163.49 43.6473C165.866 41.318 169.616 39.1829 174.74 37.2418C179.585 35.425 183.498 34.5166 186.479 34.5166C187.489 34.5166 187.993 35.0135 187.993 36.0073C187.993 36.6906 187.861 37.203 187.597 37.5446C187.333 37.8863 186.79 38.2356 185.967 38.5928L183.032 39.8506C178.684 41.6674 175.501 43.5541 173.482 45.5107C172.908 46.0541 172.62 46.5821 172.62 47.0945C172.62 47.607 173.032 47.8632 173.855 47.8632C174.662 47.8632 176.541 46.9936 179.492 45.2544L181.425 44.1131C184.422 42.3118 186.93 41.4112 188.948 41.4112C190.656 41.4112 191.79 42.1643 192.349 43.6705C192.489 44.0743 192.621 44.4858 192.745 44.905C192.869 45.3088 192.993 45.6737 193.118 45.9998C193.397 46.7607 193.646 47.1411 193.863 47.1411C194.096 47.1411 194.422 47.0324 194.841 46.815C195.261 46.5821 195.719 46.2948 196.216 45.9532C196.728 45.5961 197.256 45.2079 197.799 44.7886L200.618 42.5292C203.118 40.4484 204.997 39.408 206.255 39.408Z" fill="#2F1C00"/>
</svg>
